<?xml version="1.0" encoding="UTF-8" standalone="no"?>
<svg
   viewBox="0 0 512.00001 511.99999"
   version="1.1"
   id="svg10"
   sodipodi:docname="icon.svg"
   width="511.99997"
   height="512"
   inkscape:version="1.2.2 (732a01da63, 2022-12-09)"
   inkscape:export-filename="icon.png"
   inkscape:export-xdpi="431.12006"
   inkscape:export-ydpi="431.12006"
   xml:space="preserve"
   xmlns:inkscape="http://www.inkscape.org/namespaces/inkscape"
   xmlns:sodipodi="http://sodipodi.sourceforge.net/DTD/sodipodi-0.dtd"
   xmlns="http://www.w3.org/2000/svg"
   xmlns:svg="http://www.w3.org/2000/svg"><defs
     id="defs14" /><sodipodi:namedview
     id="namedview12"
     pagecolor="#ffffff"
     bordercolor="#000000"
     borderopacity="0.25"
     inkscape:showpageshadow="2"
     inkscape:pageopacity="0.0"
     inkscape:pagecheckerboard="0"
     inkscape:deskcolor="#d1d1d1"
     showgrid="false"
     inkscape:zoom="0.83140286"
     inkscape:cx="337.38157"
     inkscape:cy="236.94891"
     inkscape:window-width="2560"
     inkscape:window-height="1377"
     inkscape:window-x="-8"
     inkscape:window-y="-8"
     inkscape:window-maximized="1"
     inkscape:current-layer="layer1"><inkscape:page
       x="0"
       y="0"
       width="512"
       height="512"
       id="page438"
       inkscape:label="ok" /><inkscape:page
       x="532"
       y="0"
       width="512"
       height="512"
       id="page448"
       inkscape:label="bad" /></sodipodi:namedview><g
     inkscape:groupmode="layer"
     id="layer1"
     inkscape:label="Layer 1"
     transform="translate(-867.41536)"><path
       id="path1029"
       style="fill:#de0000;fill-opacity:1;stroke-width:0.999998"
       d="m 1654.9004,0 c -8.4376,0 -16.8768,3.2187 -23.3164,9.65626 l -222.5097,222.50585 c -12.8787,12.88501 -12.8787,33.76461 0,46.64063 l 223.5449,223.54104 c 12.8701,12.8752 33.7428,12.8752 46.6308,0 l 222.5098,-222.4844 c 12.8746,-12.88142 12.8746,-33.76867 0,-46.64648 l 0,-0.0176 L 1678.2051,9.65626 C 1671.7737,3.2187 1663.338,0 1654.9004,0 Z m 58.9336,123.24024 h 15.8575 l 69.0664,69.41992 -21.1426,21.14258 -40.877,-41.22852 V 387.5254 h -29.9511 V 172.57422 l -41.2286,41.22852 -21.1425,-21.14258 z m -139.3886,1.23437 h 29.9511 v 214.95118 l 40.877,-41.22852 21.1426,21.14258 -69.0664,69.41797 h -15.8575 l -69.4179,-69.41797 21.1425,-21.14258 41.2286,41.22852 z" /><g
       aria-label="↓"
       id="text378"
       style="font-size:360.835px;-inkscape-font-specification:'sans-serif, Normal';text-align:center;text-anchor:middle;stroke-width:37.7953" /><path
       id="path1226"
       style="fill:#008000;fill-opacity:1;stroke-width:0.999998"
       d="m 1122.8987,0 c -8.4377,0 -16.8768,3.21872 -23.3164,9.65626 L 877.07444,232.16211 c -12.87878,12.88501 -12.87878,33.76657 0,46.64258 l 223.54296,223.53909 c 12.8703,12.8751 33.7427,12.8751 46.6309,0 L 1369.76,279.85938 c 12.8747,-12.88141 12.8747,-33.76672 0,-46.64453 v -0.0195 L 1146.1995,9.65629 C 1139.768,3.21875 1131.3325,3e-5 1122.8948,3e-5 Z m 58.9355,123.24219 h 15.8575 l 69.0664,69.41797 -21.1426,21.14258 -40.877,-41.22852 V 387.5254 h -29.9511 V 172.57422 l -41.2286,41.22852 -21.1425,-21.14258 z m -139.3886,1.23242 h 29.9511 v 214.95118 l 40.877,-41.22852 21.1426,21.14258 -69.0664,69.41797 h -15.8575 l -69.41796,-69.41797 21.14256,-21.14258 41.2286,41.22852 z" /></g></svg>
